<svg width="48" height="48" viewBox="0 0 48 48" fill="none" xmlns="http://www.w3.org/2000/svg">
<circle cx="24" cy="24" r="23.5" stroke="#EBEBEB"/>
<path d="M33.5662 32.0815C35.0463 30.6579 36.4698 29.2909 37.9159 27.9351C38.2097 27.6365 38.5786 27.4227 38.9838 27.3162C39.3889 27.2098 39.8153 27.2147 40.2179 27.3304C40.6205 27.4461 40.9844 27.6683 41.2712 27.9736C41.5581 28.2788 41.7572 28.6559 41.8476 29.0649C41.9413 29.4843 41.9194 29.9214 41.7841 30.3293C41.6487 30.7372 41.4052 31.1007 41.0794 31.381L33.9842 38.4761L33.3855 39.0749C33.0731 39.4019 32.6953 39.6594 32.2768 39.8307C31.8583 40.002 31.4084 40.0833 30.9564 40.0691H23.7709C23.6986 40.08 23.6247 40.0751 23.5544 40.0548C23.4841 40.0346 23.4191 39.9994 23.3636 39.9516C23.3082 39.9039 23.2637 39.8448 23.2332 39.7783C23.2027 39.7118 23.1869 39.6395 23.1869 39.5664C23.1869 39.4932 23.2027 39.4209 23.2332 39.3544C23.2637 39.2879 23.3082 39.2288 23.3636 39.1811C23.4191 39.1333 23.4841 39.0981 23.5544 39.0779C23.6247 39.0576 23.6986 39.0527 23.7709 39.0636C24.2002 39.0636 24.6182 39.0636 25.0363 39.0636C27.0134 39.0636 28.9906 39.0636 30.9677 39.0636C31.2772 39.073 31.5853 39.0187 31.873 38.904C32.1606 38.7893 32.4216 38.6168 32.6398 38.397L40.4354 30.6014C40.6729 30.3961 40.8303 30.1135 40.8799 29.8035C40.9295 29.4935 40.8681 29.1759 40.7065 28.9067C40.5676 28.651 40.3434 28.4522 40.073 28.3448C39.8025 28.2375 39.5029 28.2284 39.2265 28.3192C38.964 28.4085 38.7247 28.5551 38.526 28.7486C37.0121 30.1721 35.5208 31.6069 34.0068 33.0418C33.8726 33.1831 33.7721 33.3531 33.7131 33.5389C33.6016 33.9736 33.347 34.3582 32.9905 34.6308C32.6339 34.9033 32.196 35.048 31.7473 35.0415C29.8831 35.0415 28.0189 35.0415 26.1548 35.0415C25.8045 35.0415 25.5108 34.9624 25.5108 34.5444C25.5108 34.1264 25.8158 34.0473 26.1548 34.0473H31.8037C31.944 34.0622 32.0858 34.0475 32.2199 34.0041C32.3541 33.9606 32.4776 33.8894 32.5825 33.7951C32.6874 33.7008 32.7712 33.5855 32.8286 33.4567C32.886 33.3279 32.9157 33.1885 32.9157 33.0474C32.9157 32.9064 32.886 32.767 32.8286 32.6382C32.7712 32.5093 32.6874 32.394 32.5825 32.2997C32.4776 32.2055 32.3541 32.1343 32.2199 32.0908C32.0858 32.0474 31.944 32.0326 31.8037 32.0476H31.1033C29.0809 32.0476 27.0586 32.0476 25.0363 32.0476C24.2626 32.0197 23.4947 32.191 22.8062 32.5451C22.1178 32.8992 21.5318 33.4243 21.1046 34.0699L17.2859 39.4251C17.1955 39.5494 17.1164 39.7302 16.9921 39.7754C16.7923 39.8529 16.5706 39.8529 16.3707 39.7754C16.2465 39.6737 16.2352 39.3799 16.2239 39.1653C16.2126 38.9506 16.3368 38.9845 16.4046 38.8941C17.7039 37.0639 19.0145 35.2223 20.3363 33.392C20.8579 32.6326 21.5611 32.0156 22.382 31.5973C23.2028 31.1789 24.1153 30.9725 25.0363 30.9969C27.1377 30.9969 29.2391 30.9969 31.3405 30.9969C31.776 30.9499 32.2158 31.0268 32.6096 31.2186C33.0033 31.4105 33.3349 31.7096 33.5662 32.0815Z" fill="#5619A5"/>
<path d="M30.2449 17.4619C31.4424 17.4619 32.64 17.4619 33.8376 17.4619C34.0656 17.4369 34.2958 17.4819 34.4976 17.5909C34.6994 17.6999 34.8633 17.8677 34.9674 18.072C35.6453 19.2018 36.3458 20.4333 37.0462 21.6083C37.1806 21.801 37.2449 22.0339 37.2284 22.2682C37.212 22.5026 37.1158 22.7242 36.9558 22.8962C35.1934 25.0429 33.4535 27.2121 31.691 29.37C31.5312 29.585 31.3233 29.7596 31.084 29.8799C30.8447 30.0003 30.5805 30.0629 30.3126 30.0629C30.0448 30.0629 29.7806 30.0003 29.5413 29.8799C29.3019 29.7596 29.0941 29.585 28.9343 29.37C27.1492 27.2008 25.3754 25.009 23.613 22.8285C23.4732 22.6777 23.3882 22.4842 23.3718 22.2792C23.3554 22.0743 23.4085 21.8698 23.5226 21.6987L25.7257 17.9477C25.8278 17.7804 25.9757 17.6457 26.1518 17.5597C26.328 17.4736 26.5251 17.4397 26.7199 17.4619H30.2449ZM24.8218 22.7607L25.1495 23.2013L29.4766 28.5226C30.0302 29.2005 30.4595 29.2118 31.0131 28.5226C32.5195 26.715 33.992 24.9035 35.4306 23.0883C35.5047 22.987 35.5726 22.8814 35.634 22.772H30.7533V26.3873C30.7476 26.4814 30.7476 26.5757 30.7533 26.6698C30.7533 26.9974 30.6064 27.2347 30.2674 27.246C29.9285 27.2573 29.7477 27.0087 29.7477 26.6698C29.7477 25.54 29.7477 24.4102 29.7477 23.2804V22.7607H24.8218ZM33.0693 18.5126H27.4204L30.2449 21.4953L33.0693 18.5126ZM24.6185 21.71H29.1151L26.3697 18.7951L24.6185 21.71ZM35.9164 21.71L34.1991 18.7725L31.4424 21.71H35.9164Z" fill="#5619A5"/>
<path d="M9.90847 28.4661C9.90847 25.2952 9.90847 22.1204 9.90847 18.9419C9.8977 18.4914 9.97936 18.0434 10.1484 17.6256C10.3175 17.2079 10.5703 16.8292 10.8914 16.5129C13.3656 14.0047 15.8399 11.5079 18.2803 8.97715C19.636 7.5649 21.6696 7.41803 23.2513 9.50815C23.3049 9.6009 23.3331 9.7061 23.3331 9.8132C23.3331 9.92029 23.3049 10.0255 23.2513 10.1182C23.1513 10.168 23.0411 10.1939 22.9294 10.1939C22.8176 10.1939 22.7074 10.168 22.6074 10.1182C22.3572 9.93058 22.1297 9.71447 21.9295 9.47426C21.7561 9.28813 21.5462 9.1397 21.313 9.03821C21.0798 8.93672 20.8281 8.88434 20.5737 8.88434C20.3194 8.88434 20.0677 8.93672 19.8345 9.03821C19.6012 9.1397 19.3914 9.28813 19.218 9.47426C16.642 12.0728 14.0887 14.6939 11.5241 17.3037C11.324 17.5289 11.1709 17.7919 11.0739 18.0771C10.9769 18.3623 10.9379 18.664 10.9592 18.9645V38.171C10.9484 38.28 10.9621 38.3901 10.9993 38.4931C11.0365 38.5961 11.0963 38.6895 11.1743 38.7664C11.2523 38.8433 11.3465 38.9018 11.4501 38.9376C11.5536 38.9734 11.6638 38.9855 11.7726 38.9732C12.5936 38.9732 13.4184 38.9732 14.2469 38.9732C14.6084 38.9732 14.9135 39.0523 14.9587 39.4703C15.0038 39.8883 14.7214 39.99 14.2356 39.99H11.976C11.7083 40.0339 11.434 40.0161 11.1742 39.9381C10.9143 39.8601 10.6757 39.7239 10.4763 39.5398C10.277 39.3558 10.1223 39.1287 10.0239 38.8758C9.92548 38.623 9.88601 38.351 9.90847 38.0807V28.4661Z" fill="#5619A5"/>
<path d="M29.2959 10.9092C26.6203 10.8314 23.9917 11.6243 21.8054 13.1688C21.5319 13.3988 21.2717 13.6439 21.0258 13.9032C20.7885 14.1291 20.5287 14.1969 20.2801 13.9032C20.2258 13.8586 20.182 13.8026 20.1519 13.7391C20.1218 13.6756 20.1062 13.6062 20.1062 13.536C20.1062 13.4657 20.1218 13.3963 20.1519 13.3328C20.182 13.2693 20.2258 13.2133 20.2801 13.1688C21.2996 12.067 22.5826 11.2428 24.0085 10.7736C26.647 9.72865 29.5611 9.60524 32.2786 10.4234C33.2861 10.6894 34.2018 11.2257 34.9266 11.9745C35.6514 12.7232 36.1578 13.6558 36.391 14.6714C36.6228 15.5489 36.6228 16.4715 36.391 17.349C36.3844 17.4201 36.3619 17.4888 36.3251 17.5499C36.2883 17.6111 36.2381 17.6631 36.1784 17.7022C36.1187 17.7413 36.0509 17.7664 35.9801 17.7757C35.9094 17.785 35.8374 17.7782 35.7696 17.7558C35.704 17.7433 35.6418 17.7168 35.5873 17.678C35.5329 17.6393 35.4875 17.5892 35.4542 17.5313C35.4209 17.4733 35.4006 17.4088 35.3946 17.3423C35.3886 17.2757 35.397 17.2086 35.4194 17.1457C36.1312 14.3212 34.4365 11.9825 31.5329 11.2481C30.7939 11.0949 30.0471 10.9818 29.2959 10.9092Z" fill="#5619A5"/>
<path d="M17.9866 13.4964C18.0185 13.0562 18.1687 12.6329 18.4213 12.271C18.6738 11.9091 19.0193 11.622 19.4214 11.4402C19.7378 11.282 20.0541 11.1916 20.2801 11.5644C20.506 11.9373 20.2801 12.118 19.862 12.344C19.6405 12.4461 19.4472 12.6006 19.2987 12.7942C19.1503 12.9878 19.0512 13.2146 19.01 13.455C18.9689 13.6954 18.9868 13.9423 19.0624 14.1742C19.138 14.4061 19.2689 14.6162 19.4438 14.7862C19.6188 14.9562 19.8324 15.081 20.0664 15.15C20.3004 15.2189 20.5477 15.2299 20.7868 15.1819C21.026 15.1339 21.2499 15.0284 21.4391 14.8745C21.6284 14.7206 21.7773 14.5229 21.8731 14.2986C22.0087 14.0161 22.1555 13.8014 22.4945 13.8805C22.8334 13.9596 22.969 14.2873 22.7995 14.694C22.5693 15.2287 22.161 15.6673 21.6441 15.935C21.1271 16.2028 20.5333 16.2833 19.9637 16.1627C19.3738 16.0207 18.8526 15.6758 18.4912 15.1884C18.1298 14.701 17.9512 14.1021 17.9866 13.4964Z" fill="#5619A5"/>
<path d="M25.6126 12.0502C25.7762 12.1372 25.9312 12.2394 26.0758 12.3552L29.4652 15.8463C29.7025 16.0835 29.8042 16.3547 29.5443 16.6145C29.2845 16.8744 28.9794 16.784 28.7309 16.5355C27.6011 15.4057 26.4713 14.2759 25.3415 13.0331C25.2083 12.8423 25.1519 12.6084 25.1833 12.3778C25.2172 12.2648 25.4545 12.1632 25.6126 12.0502Z" fill="#5619A5"/>
<path d="M40.2096 21.7438H41.5428C41.612 21.734 41.6826 21.7393 41.7496 21.7593C41.8166 21.7793 41.8785 21.8135 41.931 21.8597C41.9836 21.9058 42.0256 21.9627 42.0541 22.0266C42.0827 22.0904 42.0971 22.1596 42.0964 22.2296C42.1017 22.2972 42.0921 22.3651 42.0683 22.4286C42.0444 22.4921 42.0069 22.5496 41.9584 22.597C41.9099 22.6444 41.8516 22.6806 41.7876 22.703C41.7236 22.7254 41.6554 22.7335 41.588 22.7267H38.8313C38.7645 22.7288 38.6979 22.7165 38.6363 22.6905C38.5747 22.6644 38.5195 22.6254 38.4744 22.576C38.4293 22.5267 38.3955 22.4681 38.3752 22.4044C38.3549 22.3407 38.3486 22.2733 38.3568 22.207C38.356 22.14 38.3699 22.0737 38.3973 22.0125C38.4246 21.9514 38.465 21.897 38.5154 21.8529C38.5659 21.8089 38.6254 21.7763 38.6896 21.7575C38.7539 21.7386 38.8215 21.734 38.8878 21.7438H40.2096Z" fill="#5619A5"/>
<path d="M20.3705 21.7439H21.6697C22.0087 21.7439 22.2233 21.8908 22.2346 22.2184C22.2459 22.546 22.02 22.7268 21.6923 22.7381H19.0373C18.721 22.7381 18.4837 22.5573 18.495 22.2184C18.5063 21.8795 18.721 21.7326 19.0599 21.7439H20.3705Z" fill="#5619A5"/>
<path d="M20.3253 17.767C20.4867 17.8534 20.6415 17.9516 20.7885 18.0607C21.3308 18.5917 21.9183 19.1905 22.4041 19.6763C22.6414 19.9136 22.7318 20.1847 22.4719 20.4446C22.2121 20.7044 21.9409 20.6253 21.6923 20.3768C21.15 19.8345 20.5626 19.247 20.0654 18.7273C20.0047 18.6456 19.9614 18.5523 19.938 18.4532C19.9147 18.3541 19.9119 18.2513 19.9299 18.1511C19.9638 18.0155 20.1671 17.9138 20.3253 17.767Z" fill="#5619A5"/>
<path d="M37.8821 20.117C37.9647 19.963 38.0592 19.8157 38.1645 19.6764C38.6842 19.1341 39.2265 18.5466 39.7688 18.0608C39.9948 17.8348 40.266 17.7218 40.5371 17.993C40.5957 18.0384 40.6432 18.0966 40.6759 18.1632C40.7085 18.2298 40.7255 18.3029 40.7255 18.3771C40.7255 18.4513 40.7085 18.5244 40.6759 18.591C40.6432 18.6576 40.5957 18.7158 40.5371 18.7612C39.9835 19.3148 39.4073 19.891 38.8763 20.3881C38.7892 20.4509 38.6898 20.4945 38.5846 20.5159C38.4794 20.5373 38.3709 20.5361 38.2662 20.5124C38.0855 20.4898 38.0064 20.2752 37.8821 20.117Z" fill="#5619A5"/>
<path d="M22.6866 24.331C22.6079 24.4943 22.5133 24.6494 22.4042 24.7942L20.7999 26.4098C20.5513 26.6471 20.2802 26.7262 20.0203 26.4663C19.7604 26.2065 19.8395 25.9353 20.0203 25.6981C20.5739 25.1445 21.1501 24.5683 21.6811 24.0712C21.7625 24.0098 21.8557 23.9661 21.9549 23.9427C22.0541 23.9194 22.1571 23.917 22.2573 23.9356C22.4494 23.9582 22.551 24.1728 22.6866 24.331Z" fill="#5619A5"/>
<path d="M37.916 24.3311C37.9951 24.2181 38.0629 24.0148 38.1872 23.9696C38.2712 23.9269 38.3641 23.9047 38.4583 23.9047C38.5526 23.9047 38.6455 23.9269 38.7295 23.9696C39.3769 24.5529 39.9917 25.1715 40.571 25.8224C40.6308 25.9125 40.6581 26.0203 40.6482 26.128C40.6384 26.2357 40.5921 26.3368 40.517 26.4146C40.4418 26.4923 40.3424 26.5421 40.2351 26.5556C40.1278 26.5692 40.0192 26.5457 39.9271 26.489C39.2718 25.9015 38.6617 25.2575 38.0403 24.6249C37.9838 24.591 37.9725 24.478 37.916 24.3311Z" fill="#5619A5"/>
</svg>
