<svg width="48" height="48" viewBox="0 0 48 48" fill="none" xmlns="http://www.w3.org/2000/svg">
<path d="M40.3486 28.7984C40.14 29.1113 39.7923 28.9606 39.4446 29.0302C39.4446 29.1924 39.4446 29.3547 39.4446 29.517C39.448 29.5666 39.4408 29.6163 39.4233 29.6629C39.4059 29.7094 39.3787 29.7517 39.3436 29.7868C39.3084 29.822 39.2661 29.8492 39.2196 29.8666C39.173 29.8841 39.1233 29.8913 39.0737 29.8879C39.0253 29.8883 38.9775 29.8784 38.9334 29.8586C38.8892 29.8389 38.8499 29.8099 38.818 29.7736C38.7861 29.7373 38.7624 29.6946 38.7485 29.6483C38.7346 29.602 38.7309 29.5532 38.7376 29.5054V28.9838C38.5529 29.0073 38.3659 29.0073 38.1812 28.9838C38.0659 28.9316 37.9719 28.8417 37.9146 28.7288C37.8451 28.5202 37.9958 28.3811 38.2044 28.3579C38.4013 28.3463 38.5986 28.3463 38.7955 28.3579V27.8248C38.7955 27.7325 38.8321 27.6441 38.8974 27.5789C38.9626 27.5137 39.051 27.4771 39.1432 27.4771C39.2354 27.4771 39.3239 27.5137 39.3891 27.5789C39.4543 27.6441 39.4909 27.7325 39.4909 27.8248C39.4909 27.987 39.4909 28.1377 39.4909 28.3116C39.8039 28.4275 40.1979 28.2304 40.395 28.5897L40.3486 28.7984Z" fill="#5619A5"/>
<path d="M33.0003 15.5506C32.946 16.6116 32.7067 17.6549 32.2933 18.6336C32.261 18.7155 32.261 18.8067 32.2933 18.8886C32.5499 19.2423 32.7066 19.6585 32.747 20.0937C32.7873 20.5288 32.7097 20.9667 32.5224 21.3616C32.335 21.7564 32.0449 22.0935 31.6823 22.3374C31.3198 22.5814 30.8983 22.7233 30.462 22.7482C30.1164 22.7536 29.771 22.7265 29.4304 22.6671C29.2216 23.2829 28.7782 23.7914 28.1966 24.0822C27.615 24.373 26.9422 24.4226 26.3242 24.2202C26.2149 24.5607 26.0357 24.8747 25.7983 25.1421C25.5608 25.4095 25.2702 25.6245 24.9449 25.7733C25.1189 26.0087 25.2049 26.2976 25.188 26.5898C25.1711 26.8821 25.0522 27.1591 24.8522 27.3728C25.2347 28.2305 25.652 29.0418 25.9417 29.8879C26.0386 30.1895 26.0653 30.5092 26.0195 30.8226C25.9737 31.136 25.8568 31.4348 25.6777 31.696C25.4986 31.9573 25.262 32.174 24.9862 32.3297C24.7103 32.4854 24.4025 32.5758 24.0863 32.5941C23.7701 32.6124 23.4539 32.558 23.1619 32.4352C22.87 32.3123 22.61 32.1242 22.402 31.8854C22.194 31.6465 22.0434 31.3632 21.9619 31.0572C21.8803 30.7511 21.8699 30.4304 21.9314 30.1197C22.0535 29.643 22.2164 29.1777 22.4182 28.7289C22.6153 28.2884 22.8587 27.8596 23.0905 27.396C22.8784 27.1832 22.7491 26.9018 22.7257 26.6023C22.7023 26.3028 22.7865 26.0048 22.963 25.7617C22.6416 25.6171 22.3546 25.406 22.1208 25.1422C21.8871 24.8785 21.7119 24.5682 21.6069 24.2318C19.9031 24.51 18.999 24.0579 18.4079 22.7134C17.9912 22.7424 17.5729 22.7424 17.1562 22.7134C16.75 22.6568 16.3649 22.498 16.0368 22.2519C15.7088 22.0058 15.4486 21.6804 15.2807 21.3063C15.1127 20.9322 15.0425 20.5215 15.0766 20.1129C15.1107 19.7042 15.2479 19.3109 15.4756 18.9697C15.5294 18.8935 15.5584 18.8023 15.5584 18.709C15.5584 18.6156 15.5294 18.5245 15.4756 18.4482C15.0866 17.5252 14.8668 16.5398 14.8265 15.539C14.582 15.4664 14.325 15.4457 14.072 15.4782C13.819 15.5107 13.5756 15.5957 13.3574 15.7277C13.1391 15.8597 12.9509 16.0359 12.8047 16.2449C12.6585 16.4539 12.5576 16.6911 12.5084 16.9414C11.8583 19.9444 11.8981 23.0558 12.6249 26.0413C13.3516 29.0267 14.7464 31.8082 16.7041 34.1764L16.8432 34.3502C16.8775 34.3796 16.905 34.4161 16.9239 34.4571C16.9427 34.4981 16.9525 34.5427 16.9525 34.5878C16.9525 34.633 16.9427 34.6776 16.9239 34.7186C16.905 34.7596 16.8775 34.7961 16.8432 34.8254C16.815 34.8616 16.779 34.8908 16.7378 34.9109C16.6967 34.931 16.6514 34.9414 16.6056 34.9414C16.5598 34.9414 16.5146 34.931 16.4734 34.9109C16.4323 34.8908 16.3962 34.8616 16.368 34.8254C16.113 34.5241 15.858 34.2111 15.6262 33.8982C13.1548 30.6014 11.7041 26.6523 11.4537 22.5396C11.345 20.6561 11.4813 18.7666 11.8593 16.9182C11.9523 16.3206 12.2605 15.7776 12.7258 15.3912C13.1911 15.0049 13.7815 14.8019 14.3861 14.8204H15.8928C16.1305 14.827 16.3669 14.7845 16.5874 14.6955C16.8079 14.6066 17.0076 14.473 17.1741 14.3033C17.3405 14.1336 17.4702 13.9313 17.5548 13.7091C17.6395 13.487 17.6774 13.2497 17.6661 13.0123C17.6661 11.4128 17.6661 9.8133 17.6661 8.21382C17.6661 7.76179 17.7473 7.66907 18.1993 7.66907H29.5927C30.0447 7.66907 30.1259 7.76179 30.1259 8.21382V12.9079C30.1007 13.1725 30.1356 13.4393 30.2281 13.6884C30.3206 13.9375 30.4683 14.1624 30.6601 14.3464C30.8518 14.5303 31.0827 14.6685 31.3354 14.7506C31.5881 14.8327 31.8562 14.8565 32.1194 14.8204C32.6947 14.7913 33.2711 14.7913 33.8464 14.8204C34.3569 14.8609 34.8397 15.0695 35.2192 15.4133C35.5987 15.7572 35.8537 16.2171 35.9443 16.7212C36.4109 18.7726 36.5556 20.8841 36.3731 22.98C36.0759 26.5971 34.8459 30.0754 32.8032 33.0753L32.6989 33.2376C32.6756 33.2768 32.6442 33.3108 32.6068 33.3371C32.5695 33.3634 32.527 33.3815 32.4821 33.3903C32.4372 33.3991 32.391 33.3982 32.3465 33.3879C32.302 33.3775 32.2601 33.3579 32.2237 33.3303C32.1835 33.3079 32.1485 33.2773 32.121 33.2404C32.0936 33.2035 32.0743 33.1611 32.0644 33.1162C32.0545 33.0713 32.0543 33.0247 32.0638 32.9797C32.0733 32.9347 32.0923 32.8922 32.1194 32.8551C32.1552 32.7889 32.1979 32.7267 32.2469 32.6696C34.8697 28.8257 36.0968 24.1994 35.724 19.5608C35.642 18.6817 35.5143 17.8073 35.3416 16.9414C35.2931 16.6886 35.1916 16.449 35.0438 16.2384C34.8959 16.0277 34.705 15.8508 34.4837 15.7194C34.2625 15.5879 34.0159 15.5049 33.7601 15.4758C33.5044 15.4467 33.2454 15.4722 33.0003 15.5506ZM23.0673 21.1487H24.829C25.0397 20.5322 25.4854 20.0239 26.0692 19.7347C26.6779 19.442 27.3773 19.4004 28.0164 19.6188C28.1301 19.2568 28.3247 18.9253 28.5853 18.6495C28.846 18.3737 29.1659 18.1608 29.521 18.0268C29.876 17.8928 30.2569 17.8413 30.6347 17.8762C31.0126 17.911 31.3776 18.0313 31.7022 18.2279C32.0621 17.3713 32.2624 16.4561 32.2933 15.5274H32.0499C31.7029 15.5409 31.3569 15.4817 31.0341 15.3536C30.7113 15.2255 30.4189 15.0314 30.1755 14.7837C29.9321 14.5359 29.7432 14.2401 29.6209 13.9151C29.4986 13.59 29.4456 13.2431 29.4652 12.8964C29.4652 11.5055 29.4652 10.1262 29.4652 8.73539V8.37608H18.4079V8.75857C18.4079 10.1958 18.4079 11.633 18.4079 13.0702C18.4037 13.6034 18.2228 14.1202 17.8935 14.5397C17.5643 14.9591 17.1052 15.2576 16.5882 15.3883C16.2678 15.462 15.9424 15.5123 15.6146 15.539C15.6095 16.4917 15.8154 17.4337 16.2173 18.2975C16.5344 18.0997 16.893 17.9779 17.265 17.9417C17.637 17.9055 18.0123 17.9559 18.3616 18.0889C18.7141 18.2231 19.0322 18.4343 19.2929 18.707C19.5535 18.9796 19.7501 19.307 19.8683 19.6652C20.1758 19.5523 20.5025 19.5012 20.8297 19.5147C21.1569 19.5282 21.4782 19.6061 21.7753 19.7439C22.0724 19.8817 22.3395 20.0766 22.5611 20.3177C22.7828 20.5588 22.9548 20.8412 23.0673 21.1487ZM24.0061 25.2517C24.3523 25.2494 24.6899 25.1446 24.9765 24.9503C25.263 24.7561 25.4855 24.4813 25.6158 24.1606C25.7462 23.84 25.7785 23.4879 25.7087 23.1488C25.6389 22.8098 25.4702 22.4991 25.2238 22.2559C24.9774 22.0128 24.6645 21.8482 24.3246 21.7829C23.9846 21.7176 23.633 21.7546 23.3141 21.8892C22.9951 22.0237 22.7233 22.2499 22.5329 22.5389C22.3425 22.828 22.2421 23.167 22.2444 23.5132C22.2459 23.743 22.2927 23.9703 22.382 24.1821C22.4714 24.3938 22.6016 24.5859 22.7652 24.7473C22.9288 24.9088 23.1225 25.0364 23.3355 25.123C23.5484 25.2095 23.7763 25.2533 24.0061 25.2517ZM19.0338 21.9021C19.0344 22.1722 19.0975 22.4385 19.2181 22.6801C19.3388 22.9217 19.5137 23.1322 19.7292 23.2949C19.9447 23.4577 20.195 23.5684 20.4604 23.6183C20.7259 23.6682 20.9992 23.6561 21.2592 23.5827C21.3472 23.5688 21.4273 23.5237 21.4847 23.4556C21.5422 23.3875 21.5732 23.3009 21.5721 23.2118C21.6212 22.6616 21.8733 22.1493 22.2791 21.7746C22.3425 21.7227 22.3862 21.6508 22.403 21.5707C22.4199 21.4906 22.4089 21.4072 22.3719 21.3342C22.2263 20.9541 21.9529 20.6367 21.5986 20.4364C21.2443 20.2362 20.8313 20.1657 20.4306 20.237C20.03 20.3084 19.6667 20.5171 19.4033 20.8274C19.1399 21.1376 18.9929 21.53 18.9875 21.9369L19.0338 21.9021ZM28.9436 21.9021C28.94 21.4915 28.7912 21.0955 28.5236 20.7841C28.256 20.4727 27.8868 20.2661 27.4814 20.2009C27.0761 20.1356 26.6607 20.216 26.3089 20.4276C25.957 20.6393 25.6915 20.9687 25.5592 21.3574C25.5462 21.4177 25.5467 21.4802 25.5607 21.5403C25.5748 21.6005 25.602 21.6567 25.6404 21.7051C26.0591 22.1206 26.3037 22.6802 26.3242 23.2698C26.3304 23.3481 26.362 23.4223 26.4144 23.4809C26.4667 23.5395 26.5368 23.5794 26.614 23.5943C26.8765 23.6783 27.1552 23.6991 27.4274 23.6549C27.6995 23.6108 27.9574 23.503 28.1799 23.3403C28.4025 23.1776 28.5835 22.9646 28.7081 22.7187C28.8328 22.4728 28.8976 22.201 28.8973 21.9253L28.9436 21.9021ZM32.1194 20.3142C32.1216 19.9008 31.9754 19.5004 31.7074 19.1856C31.4395 18.8708 31.0675 18.6626 30.659 18.5988C30.2551 18.5386 29.8428 18.6214 29.4936 18.8331C29.1443 19.0448 28.8801 19.3719 28.7466 19.7579C28.7021 19.829 28.6869 19.9147 28.7042 19.9968C28.7215 20.0789 28.7699 20.1511 28.8393 20.1983C29.2708 20.5721 29.5374 21.1011 29.5811 21.6703C29.5811 21.9253 29.7318 21.9948 29.9288 22.0528C30.1913 22.1211 30.466 22.1275 30.7314 22.0715C30.9967 22.0155 31.2454 21.8986 31.4578 21.73C31.6703 21.5614 31.8406 21.3457 31.9554 21.1C32.0702 20.8544 32.1264 20.5853 32.1194 20.3142ZM15.7885 20.3142C15.7851 20.5819 15.8436 20.8468 15.9594 21.0881C16.0752 21.3295 16.2451 21.5409 16.456 21.7058C16.6669 21.8707 16.913 21.9847 17.1752 22.0388C17.4374 22.093 17.7085 22.0859 17.9675 22.018C18.0659 22.0093 18.1574 21.964 18.2239 21.891C18.2905 21.818 18.3272 21.7227 18.3268 21.6239C18.3758 21.0654 18.6371 20.5468 19.057 20.1751C19.1279 20.1238 19.1775 20.0484 19.1967 19.963C19.216 19.8777 19.2034 19.7883 19.1613 19.7115C19.0249 19.3325 18.7635 19.0112 18.4201 18.8005C18.0767 18.5898 17.6718 18.5023 17.2721 18.5525C16.8523 18.6118 16.4687 18.8224 16.1934 19.1447C15.918 19.467 15.7699 19.8788 15.7769 20.3026L15.7885 20.3142ZM25.3506 30.5602C25.362 30.46 25.362 30.3589 25.3506 30.2588C25.0261 29.517 24.7015 28.7521 24.3538 28.0219C24.3206 27.9533 24.2687 27.8954 24.2042 27.855C24.1396 27.8145 24.0649 27.793 23.9887 27.793C23.9125 27.793 23.8379 27.8145 23.7733 27.855C23.7087 27.8954 23.6568 27.9533 23.6236 28.0219C23.2759 28.7289 22.9398 29.4359 22.6616 30.1777C22.5728 30.4265 22.5666 30.6973 22.6438 30.9499C22.7211 31.2025 22.8777 31.4235 23.0905 31.5801C23.28 31.7654 23.523 31.8863 23.7851 31.9259C24.0472 31.9654 24.3151 31.9215 24.5509 31.8003C24.7867 31.687 24.9857 31.5093 25.1251 31.2879C25.2646 31.0665 25.3387 30.8102 25.339 30.5486L25.3506 30.5602ZM24.4813 26.5499C24.4859 26.4441 24.4589 26.3393 24.4036 26.2489C24.3484 26.1585 24.2675 26.0866 24.1713 26.0424C24.0751 25.9982 23.9678 25.9836 23.8633 26.0006C23.7587 26.0175 23.6616 26.0652 23.5843 26.1376C23.507 26.21 23.453 26.3038 23.4291 26.407C23.4053 26.5102 23.4128 26.6181 23.4506 26.7171C23.4884 26.816 23.5548 26.9015 23.6414 26.9625C23.7279 27.0236 23.8307 27.0575 23.9366 27.0599C24.0751 27.057 24.2074 27.0015 24.3064 26.9046C24.4055 26.8077 24.4639 26.6767 24.4697 26.5383L24.4813 26.5499Z" fill="#5619A5"/>
<path d="M23.9367 40.3193H15.7538C15.1859 40.3193 15.1279 40.3193 15.1279 39.6934C15.0818 39.0867 15.1526 38.4768 15.3365 37.8969C15.5653 37.3179 15.9604 36.8196 16.4719 36.4649C16.9834 36.1101 17.5886 35.9147 18.211 35.9033C22.0474 35.9033 25.8954 35.9033 29.7319 35.9033C30.5296 35.9151 31.2917 36.2357 31.858 36.7977C32.4243 37.3596 32.7506 38.1192 32.7686 38.9168C32.7686 39.2645 32.7686 39.6007 32.7686 39.9484C32.7686 40.2961 32.6411 40.3193 32.3977 40.3309H23.9367V40.3193ZM15.8234 39.6007H32.0152C32.0996 39.2278 32.0967 38.8404 32.0066 38.4689C31.9166 38.0973 31.7419 37.7516 31.4961 37.4587C31.2504 37.1659 30.9403 36.9338 30.59 36.7806C30.2397 36.6274 29.8588 36.5572 29.4769 36.5756H18.4428C18.0582 36.5568 17.6745 36.6274 17.3218 36.7818C16.9691 36.9363 16.6569 37.1703 16.4099 37.4657C16.1628 37.761 15.9876 38.1096 15.8979 38.484C15.8082 38.8585 15.8065 39.2486 15.8929 39.6238L15.8234 39.6007Z" fill="#5619A5"/>
<path d="M11.0479 9.651C11.3799 9.651 11.6983 9.78288 11.933 10.0176C12.1678 10.2524 12.2997 10.5708 12.2997 10.9028C12.2997 11.2348 12.1678 11.5531 11.933 11.7879C11.6983 12.0227 11.3799 12.1545 11.0479 12.1545C10.8835 12.1545 10.7208 12.1222 10.5689 12.0592C10.417 11.9963 10.279 11.9041 10.1628 11.7879C10.0465 11.6717 9.95434 11.5337 9.89143 11.3818C9.82853 11.2299 9.79614 11.0672 9.79614 10.9028C9.79614 10.7384 9.82853 10.5756 9.89143 10.4237C9.95434 10.2719 10.0465 10.1339 10.1628 10.0176C10.279 9.9014 10.417 9.80919 10.5689 9.74629C10.7208 9.68338 10.8835 9.651 11.0479 9.651ZM11.0479 10.358C10.9754 10.358 10.9036 10.3725 10.8367 10.4006C10.7699 10.4287 10.7093 10.4698 10.6586 10.5216C10.6078 10.5735 10.5679 10.6349 10.5413 10.7023C10.5146 10.7698 10.5016 10.8419 10.5032 10.9144C10.5032 11.0681 10.5642 11.2155 10.6729 11.3241C10.7816 11.4328 10.929 11.4939 11.0827 11.4939C11.2364 11.4939 11.3838 11.4328 11.4925 11.3241C11.6011 11.2155 11.6622 11.0681 11.6622 10.9144C11.6651 10.8333 11.6499 10.7527 11.6177 10.6783C11.5855 10.6039 11.5371 10.5376 11.476 10.4843C11.4149 10.431 11.3427 10.392 11.2646 10.3702C11.1866 10.3483 11.1046 10.3442 11.0247 10.358H11.0479Z" fill="#5619A5"/>
<path d="M9.19346 34.9993H9.73821C9.94684 34.9993 10.0859 35.1036 10.0975 35.3238C10.1091 35.544 9.97001 35.6715 9.74979 35.6947H9.19346C9.19346 35.8917 9.19346 36.0772 9.19346 36.251C9.19501 36.2961 9.18746 36.3411 9.17127 36.3832C9.15508 36.4254 9.13057 36.4638 9.0992 36.4962C9.06783 36.5287 9.03025 36.5545 8.98869 36.5721C8.94714 36.5897 8.90247 36.5988 8.85733 36.5987C8.81166 36.6003 8.76614 36.5928 8.72336 36.5768C8.68058 36.5607 8.64138 36.5364 8.60801 36.5052C8.57464 36.4739 8.54776 36.4365 8.52888 36.3948C8.51001 36.3532 8.49953 36.3083 8.49803 36.2626C8.49803 36.0888 8.49803 35.9149 8.49803 35.6947H7.98805C7.75624 35.6947 7.59397 35.5788 7.60556 35.3238C7.60674 35.2765 7.61791 35.2299 7.63834 35.1872C7.65878 35.1444 7.68801 35.1065 7.72412 35.0759C7.76023 35.0452 7.80242 35.0226 7.8479 35.0094C7.89338 34.9962 7.94114 34.9927 7.98805 34.9993H8.49803C8.49803 34.8022 8.49803 34.64 8.49803 34.4661C8.49803 34.2923 8.61393 34.0952 8.84574 34.0952C8.89446 34.0912 8.94345 34.0982 8.98906 34.1158C9.03468 34.1334 9.07573 34.161 9.10917 34.1967C9.1426 34.2324 9.16754 34.2751 9.18214 34.3218C9.19673 34.3684 9.2006 34.4178 9.19346 34.4661V34.9993Z" fill="#5619A5"/>
<path d="M31.3312 34.0257C31.4603 34.0257 31.5841 34.0769 31.6754 34.1682C31.7667 34.2595 31.818 34.3833 31.818 34.5125C31.818 34.6416 31.7667 34.7654 31.6754 34.8567C31.5841 34.948 31.4603 34.9993 31.3312 34.9993C31.2021 34.9993 31.0783 34.948 30.987 34.8567C30.8957 34.7654 30.8444 34.6416 30.8444 34.5125C30.8428 34.4481 30.8543 34.3841 30.8782 34.3243C30.9021 34.2645 30.9379 34.2102 30.9834 34.1647C31.0289 34.1192 31.0832 34.0834 31.143 34.0595C31.2028 34.0356 31.2668 34.0241 31.3312 34.0257Z" fill="#5619A5"/>
<circle cx="24" cy="24" r="23.5" stroke="#EBEBEB"/>
</svg>
