<svg width="49" height="48" viewBox="0 0 49 48" fill="none" xmlns="http://www.w3.org/2000/svg">
<path d="M23.1045 9.75H25.8759C25.9546 9.86415 26.0143 9.99025 26.0528 10.1234C26.0528 10.4183 26.0528 10.7131 26.0528 11.0276H35.556C35.5411 10.7526 35.5411 10.477 35.556 10.2021C35.5898 10.0455 35.6426 9.89372 35.7133 9.75L38.75 9.75V12.7474C38.5965 12.817 38.4346 12.8665 38.2684 12.8948C38.0033 12.9096 37.7376 12.9096 37.4724 12.8948V22.3981C37.7869 22.3981 38.0817 22.3981 38.3667 22.3981C38.5033 22.4309 38.633 22.4875 38.75 22.5652V25.3464C38.6302 25.4213 38.5014 25.4808 38.3667 25.5233C38.0817 25.5233 37.7869 25.5233 37.4724 25.5233V35.0266C37.7378 35.0266 37.9933 35.0266 38.239 35.0266C38.4126 35.0633 38.5834 35.1126 38.75 35.174V38.0043C38.6191 38.0826 38.4764 38.139 38.3274 38.1714C37.5543 38.1714 36.7779 38.1714 35.9983 38.1714C35.6838 38.1714 35.6052 38.0928 35.5953 37.7783V36.9036H26.0626C26.0626 37.2083 26.0626 37.5031 26.0626 37.7979C26.0626 38.0928 25.9741 38.25 25.6793 38.25C24.8931 38.25 24.1069 38.25 23.3109 38.25C22.9964 38.25 22.9276 38.1812 22.9178 37.8569V36.9822H13.4538V37.0412C13.4538 37.2967 13.4538 37.5424 13.4538 37.7881C13.4538 38.0338 13.385 38.25 13.0116 38.25H10.6922C10.3384 38.25 10.2598 38.1714 10.2598 37.8274V35.4786C10.2598 35.1347 10.3483 35.056 10.6922 35.056H11.5374V25.5429H10.6628C10.3384 25.5429 10.2598 25.4741 10.2598 25.1498V22.7912C10.2598 22.4866 10.3384 22.4178 10.6431 22.4079H11.5374V12.9047H10.6529C10.3483 12.9047 10.2598 12.8064 10.2598 12.5017C10.25 11.7155 10.25 10.9391 10.25 10.1628C10.2868 10.0167 10.3465 9.87737 10.4269 9.75L13.2671 9.75C13.3309 9.89461 13.3771 10.0464 13.4047 10.2021C13.4194 10.477 13.4194 10.7526 13.4047 11.0276H22.9079C22.9079 10.7131 22.9079 10.4183 22.9079 10.1234C22.9525 9.989 23.0189 9.86282 23.1045 9.75ZM12.1271 12.9047V22.4079H12.9821C13.3359 22.4079 13.4145 22.4866 13.4145 22.8207V25.1302C13.4145 25.4741 13.3359 25.5429 12.9821 25.5429H12.1271V35.0462H12.9231C13.3457 35.0462 13.4145 35.115 13.4145 35.5572V36.3336H22.9178V35.4491C22.9178 35.1347 23.0062 35.056 23.3207 35.056C24.1003 35.056 24.8767 35.056 25.6498 35.056C25.9741 35.056 26.0528 35.1347 26.0626 35.4688V36.3336H35.5659V35.4884C35.5659 35.1445 35.6543 35.056 35.9884 35.056H36.8435V25.5429H35.959C35.6543 25.5429 35.5659 25.4643 35.5659 25.1695V22.7814C35.5659 22.4964 35.6543 22.4079 35.959 22.4079H36.8533V12.9047H35.9884C35.6543 12.9047 35.5659 12.8162 35.5659 12.4722V11.6172H26.0626C26.0626 11.9317 26.0626 12.2266 26.0626 12.5214C26.0626 12.8162 25.984 12.9047 25.6891 12.9047H23.3207C23.0062 12.9047 22.9276 12.8162 22.9178 12.5017V11.6172H13.4145V12.4821C13.4145 12.8064 13.326 12.8948 13.0017 12.9047H12.1271ZM12.8445 12.3347V10.3691H10.879V12.3347H12.8445ZM36.1359 12.3347H38.1014V10.3691H36.1359V12.3347ZM12.8445 35.626H10.879V37.5916H12.8445V35.626ZM36.1359 37.5916H38.1014V35.626H36.1359V37.5916ZM23.4878 12.3248H25.4533V10.3593H23.4878V12.3248ZM10.8298 24.9729H12.7953V23.0074H10.8298V24.9729ZM36.1359 24.9729H38.1014V23.0074H36.1359V24.9729ZM25.4828 37.6309V35.6653H23.5172V37.6309H25.4828Z" fill="#5619A5"/>
<path d="M24.4901 14.7327H31.2712C31.391 14.728 31.5099 14.7556 31.6154 14.8127C31.7209 14.8697 31.809 14.9541 31.8707 15.057C32.6274 16.2166 33.4136 17.3665 34.1998 18.5065C34.2614 18.5792 34.2953 18.6715 34.2953 18.7669C34.2953 18.8623 34.2614 18.9546 34.1998 19.0273L24.7948 32.9923C24.5786 33.297 24.3919 33.297 24.1855 32.9923L14.7707 19.0666C14.6947 18.9834 14.6526 18.8747 14.6526 18.762C14.6526 18.6493 14.6947 18.5406 14.7707 18.4573C15.5569 17.3173 16.3234 16.1773 17.0801 15.0275C17.137 14.9284 17.2206 14.8472 17.3214 14.7934C17.4222 14.7395 17.5361 14.7151 17.6501 14.7229H24.5295L24.4901 14.7327ZM20.0776 19.0765L24.441 31.9703H24.5L28.9224 19.0765H20.0776ZM23.4288 30.8696V30.7418C22.1184 26.9091 20.8245 23.073 19.5469 19.2337C19.5349 19.1674 19.4972 19.1085 19.442 19.0698C19.3867 19.0312 19.3185 19.0159 19.252 19.0273H15.665C15.5963 19.0206 15.5272 19.0206 15.4586 19.0273L23.4288 30.8696ZM25.4631 30.8696L33.5414 19.047H33.1974C32.0574 19.047 30.9174 19.047 29.7774 19.047C29.6853 19.0354 29.5922 19.0595 29.5173 19.1143C29.4424 19.1691 29.3913 19.2505 29.3745 19.3418C28.3917 22.123 27.5072 24.8944 26.5638 27.6756C26.2001 28.7272 25.8464 29.7984 25.4827 30.8696H25.4631ZM28.4114 18.4672C27.0846 17.4844 25.8365 16.4427 24.5688 15.5189C24.5261 15.4973 24.479 15.486 24.4312 15.486C24.3834 15.486 24.3362 15.4973 24.2936 15.5189L20.7458 18.3001L20.5591 18.4672H28.4114ZM23.6155 15.3223H17.9155L19.7336 18.3492L23.6155 15.3223ZM25.296 15.3223L29.1681 18.3492L30.9862 15.3223H25.296ZM17.4339 15.5287L15.4684 18.477H19.1931L17.4339 15.5287ZM29.7872 18.477H33.5217L31.5562 15.5287L29.7872 18.477Z" fill="#5619A5"/>
<circle cx="24.5" cy="24" r="23.5" stroke="#EBEBEB"/>
</svg>
