<svg width="48" height="48" viewBox="0 0 48 48" fill="none" xmlns="http://www.w3.org/2000/svg">
<circle cx="24" cy="24" r="23.5" stroke="#EBEBEB"/>
<path d="M32.7898 37.6001C32.5483 38.5056 32.2948 39.3991 32.0533 40.2925L31.7636 41.3912C31.7032 41.6568 31.6549 41.9466 31.3169 41.9949C30.9788 42.0432 30.8581 41.7413 30.7373 41.4878C29.5541 39.1777 28.375 36.8717 27.1998 34.5697L26.9946 34.1954C26.8618 34.292 26.7289 34.3765 26.6203 34.4731L25.92 35.1251C25.3934 35.6334 24.69 35.9174 23.9581 35.9174C23.2262 35.9174 22.5228 35.6334 21.9962 35.1251L20.9578 34.1834C20.8733 34.3524 20.8009 34.461 20.7405 34.5697L17.203 41.4757C17.203 41.4757 17.203 41.5361 17.203 41.5723C17.0943 41.8017 16.9736 42.0311 16.6718 41.9949C16.3699 41.9586 16.2975 41.7292 16.2371 41.4878C15.9594 40.4615 15.6938 39.4474 15.4161 38.4332L15.1867 37.6001L12.3012 38.3608L11.2991 38.6022C11.0576 38.6626 10.792 38.7592 10.5988 38.4936C10.4057 38.228 10.5988 38.0106 10.7075 37.7933C11.9148 35.9099 13.1222 34.0143 14.3295 32.1309C14.4078 31.9774 14.5008 31.8318 14.6072 31.6962C14.6756 31.6396 14.7306 31.5686 14.7684 31.4882C14.8061 31.4079 14.8257 31.3202 14.8257 31.2314C14.8257 31.1426 14.8061 31.0549 14.7684 30.9746C14.7306 30.8942 14.6756 30.8232 14.6072 30.7666C14.3044 30.4725 13.9633 30.2207 13.593 30.018C13.2419 29.8775 12.8831 29.7565 12.5185 29.6558C11.8747 29.4253 11.3364 28.9691 11.0033 28.3719C10.6703 27.7747 10.5652 27.0769 10.7075 26.4081C10.7799 26.0821 10.8645 25.7682 10.9248 25.4422C11.0102 25.1207 11.0106 24.7825 10.926 24.4608C10.8413 24.139 10.6745 23.8448 10.4419 23.607C10.2246 23.3776 10.0072 23.1482 9.80199 22.9068C9.30083 22.3813 9.02124 21.683 9.02124 20.9569C9.02124 20.2308 9.30083 19.5325 9.80199 19.007L10.454 18.3068C10.6856 18.0683 10.8517 17.7741 10.9363 17.4526C11.0209 17.1311 11.0211 16.7932 10.9369 16.4716C10.8193 16.0108 10.7306 15.543 10.6713 15.0711C10.6296 14.4423 10.8012 13.8178 11.1583 13.2986C11.5154 12.7794 12.0372 12.3957 12.6392 12.2097L13.6896 11.8837C13.9727 11.7936 14.23 11.6369 14.4401 11.4268C14.6502 11.2168 14.8068 10.9594 14.897 10.6764L15.1867 9.73464C15.2834 9.37313 15.4504 9.0342 15.6781 8.73722C15.9058 8.44024 16.1897 8.19102 16.5137 8.00378C16.8377 7.81655 17.1955 7.69498 17.5665 7.64601C17.9375 7.59704 18.3145 7.62163 18.676 7.71838L19.5694 7.92362C19.8846 8.00345 20.2151 7.99978 20.5285 7.91298C20.8418 7.82618 21.1271 7.65924 21.3563 7.42861C21.634 7.17507 21.9116 6.90946 22.2014 6.66799C22.7063 6.23686 23.3485 6 24.0124 6C24.6764 6 25.3185 6.23686 25.8234 6.66799C26.077 6.88531 26.3185 7.1147 26.5599 7.3441C26.8171 7.61754 27.1452 7.81424 27.5076 7.91229C27.8699 8.01034 28.2524 8.00591 28.6124 7.89948C29.2387 7.67632 29.9083 7.60192 30.5683 7.68216C31.0656 7.76451 31.531 7.98126 31.914 8.30897C32.297 8.63668 32.5832 9.06288 32.7415 9.54147C32.8743 9.87952 32.9588 10.2417 33.0675 10.5919C33.1597 10.8989 33.3273 11.1781 33.5551 11.4037C33.7828 11.6294 34.0635 11.7944 34.3714 11.8837C34.7336 12.0044 35.12 12.1131 35.4822 12.2459C36.1206 12.4785 36.6532 12.9343 36.9816 13.5291C37.3101 14.1239 37.4122 14.8174 37.2691 15.4816C37.2087 15.8076 37.1242 16.1336 37.0517 16.4475C36.9661 16.77 36.9645 17.109 37.0469 17.4323C37.1293 17.7557 37.2931 18.0525 37.5226 18.2947C37.7761 18.5603 38.0297 18.8259 38.2712 19.1036C38.7269 19.6181 38.9785 20.2817 38.9785 20.969C38.9785 21.6563 38.7269 22.3198 38.2712 22.8343C38.0538 23.0879 37.8365 23.3293 37.6071 23.5587C37.3621 23.8013 37.186 24.1047 37.0968 24.4378C37.0077 24.7709 37.0088 25.1217 37.1 25.4543L37.3174 26.4201C37.4536 27.0933 37.3432 27.793 37.0063 28.3915C36.6693 28.99 36.1284 29.4473 35.4822 29.68C35.12 29.8007 34.7457 29.8852 34.3956 30.0301C34.1158 30.1421 33.8551 30.2969 33.6229 30.4889C33.0796 30.9839 33.0554 31.2495 33.4539 31.8653C34.6612 33.8211 35.9893 35.7891 37.2691 37.745C37.2691 37.8175 37.3898 37.8899 37.4019 37.9623C37.4139 38.0348 37.4985 38.397 37.4019 38.4936C37.3177 38.5639 37.2165 38.6109 37.1085 38.63C37.0004 38.6491 36.8893 38.6395 36.7861 38.6022C35.5184 38.2883 34.2507 37.9382 32.9951 37.6001H32.7898ZM36.4118 15.1073C36.4516 14.6692 36.3452 14.2303 36.1094 13.8591C35.8735 13.4878 35.5214 13.205 35.1079 13.0548C34.7216 12.922 34.3111 12.8134 33.9006 12.6685C33.5103 12.5372 33.1557 12.3174 32.8646 12.0262C32.5735 11.7351 32.3536 11.3805 32.2224 10.9903C32.0896 10.616 31.993 10.2417 31.8722 9.86745C31.7264 9.39191 31.4028 8.99096 30.9687 8.74807C30.5347 8.50518 30.0236 8.43907 29.5421 8.56352L28.6124 8.76877C28.1468 8.88999 27.6578 8.88924 27.1926 8.76659C26.7274 8.64394 26.3016 8.40352 25.9562 8.06851L25.4009 7.54935C25.2152 7.34265 24.9881 7.17734 24.7343 7.06418C24.4805 6.95103 24.2058 6.89254 23.9279 6.89254C23.6501 6.89254 23.3753 6.95103 23.1215 7.06418C22.8678 7.17734 22.6406 7.34265 22.455 7.54935C22.1893 7.80289 21.9237 8.05643 21.634 8.28583C21.3409 8.53054 20.9973 8.70726 20.6278 8.80329C20.2583 8.89932 19.8721 8.91227 19.497 8.84121L18.2896 8.58766C17.8218 8.48651 17.333 8.56265 16.9181 8.80133C16.5032 9.04001 16.1917 9.42424 16.044 9.87952C15.9232 10.2055 15.8387 10.5556 15.73 10.8937C15.5981 11.3233 15.3629 11.7141 15.0451 12.0319C14.7273 12.3497 14.3366 12.5848 13.907 12.7168L12.929 13.0186C12.4329 13.1648 12.0137 13.4992 11.761 13.9505C11.5083 14.4017 11.4422 14.9339 11.5768 15.4333C11.6492 15.7834 11.7458 16.1215 11.8062 16.4716C11.8929 16.8692 11.8879 17.2813 11.7917 17.6766C11.6955 18.072 11.5105 18.4403 11.2508 18.7535C10.9852 19.0674 10.6954 19.3692 10.4177 19.6832C10.0851 20.0406 9.90012 20.5108 9.90012 20.9992C9.90012 21.4875 10.0851 21.9577 10.4177 22.3152C10.6834 22.6291 10.9731 22.9068 11.2267 23.2207C11.513 23.5455 11.7163 23.9348 11.8194 24.3553C11.9224 24.7758 11.922 25.215 11.8183 25.6354C11.7579 25.9493 11.6734 26.2632 11.613 26.5771C11.542 26.8268 11.5218 27.0883 11.5535 27.3459C11.5852 27.6036 11.6683 27.8524 11.7977 28.0774C11.9271 28.3025 12.1003 28.4994 12.307 28.6564C12.5138 28.8135 12.7499 28.9275 13.0015 28.9918C13.3516 29.1125 13.7017 29.197 14.0518 29.3298C14.435 29.463 14.7824 29.6825 15.0671 29.9714C15.3518 30.2604 15.5663 30.6109 15.6938 30.996C15.8266 31.3582 15.9232 31.7324 16.056 32.1067C16.1467 32.4618 16.3452 32.7801 16.624 33.0179C16.9029 33.2557 17.2485 33.4013 17.6135 33.4348C18.1601 33.4501 18.7058 33.3808 19.2313 33.2295C19.7173 33.0991 20.229 33.0997 20.7147 33.2312C21.2003 33.3626 21.6424 33.6203 21.9962 33.9781L22.5998 34.5335C22.7817 34.7167 22.9979 34.8622 23.2362 34.9614C23.4745 35.0607 23.7301 35.1118 23.9883 35.1118C24.2464 35.1118 24.502 35.0607 24.7403 34.9614C24.9786 34.8622 25.1949 34.7167 25.3767 34.5335C25.6665 34.2679 25.9442 33.9902 26.246 33.7487C26.5449 33.4931 26.8983 33.3091 27.2791 33.2108C27.6599 33.1125 28.0581 33.1024 28.4434 33.1813C28.8418 33.2658 29.2282 33.3624 29.6507 33.4348C30.1433 33.5448 30.6593 33.4589 31.0896 33.1952C31.52 32.9316 31.8309 32.511 31.9567 32.0222C32.0775 31.66 32.1741 31.2978 32.2948 30.9356C32.4274 30.5308 32.6541 30.1632 32.9563 29.8631C33.2585 29.563 33.6277 29.3388 34.0334 29.2091L35.0838 28.8831C35.5772 28.7346 35.9927 28.3985 36.241 27.947C36.4893 27.4955 36.5507 26.9647 36.4118 26.4684C36.3394 26.1304 36.2549 25.8044 36.1825 25.4663C36.0928 25.0568 36.0995 24.632 36.2022 24.2255C36.3049 23.819 36.5006 23.4419 36.774 23.1241C37.0276 22.8222 37.3174 22.5325 37.583 22.2306C37.9071 21.8713 38.0864 21.4046 38.0864 20.9207C38.0864 20.4368 37.9071 19.9701 37.583 19.6107C37.3294 19.321 37.0638 19.0553 36.8103 18.7776C36.5115 18.4428 36.2983 18.0405 36.1889 17.6053C36.0796 17.17 36.0774 16.7147 36.1825 16.2784C36.2307 15.8559 36.3273 15.4092 36.3998 15.1073H36.4118ZM16.7925 40.3529L20.0886 33.8936L19.2676 34.0505C18.7328 34.1735 18.1863 34.2383 17.6377 34.2437C17.1025 34.2098 16.5889 34.0204 16.16 33.6987C15.731 33.3769 15.4053 32.9369 15.223 32.4327L11.939 37.5277L12.3978 37.3949L15.0539 36.7067C15.6214 36.5497 15.7663 36.6222 15.9111 37.2017C16.2613 38.2159 16.4907 39.23 16.7925 40.3529ZM36.0013 37.5398L32.6932 32.4327C32.5283 32.8572 32.2668 33.2375 31.9294 33.5435C31.592 33.8494 31.188 34.0727 30.7494 34.1954C30.0718 34.317 29.3745 34.2672 28.7211 34.0505C28.446 33.9882 28.168 33.9398 27.888 33.9057L31.184 40.3529C31.4859 39.2421 31.7636 38.2159 32.0292 37.1896C32.1861 36.6343 32.319 36.5497 32.8743 36.6946L36.0013 37.5398Z" fill="#5619A5"/>
<path d="M34.0815 20.9509C34.0815 22.9515 33.4884 24.9071 32.3772 26.5707C31.266 28.2342 29.6866 29.531 27.8386 30.2971C25.9905 31.0633 23.9569 31.2643 21.9946 30.8749C20.0323 30.4855 18.2295 29.5231 16.8141 28.1094C15.3986 26.6956 14.4341 24.894 14.0423 22.9321C13.6506 20.9703 13.8492 18.9364 14.6131 17.0875C15.3771 15.2385 16.672 13.6575 18.3342 12.5444C19.9964 11.4312 21.9514 10.8358 23.9519 10.8334C26.6364 10.8334 29.211 11.8989 31.1104 13.796C33.0097 15.6931 34.0783 18.2665 34.0815 20.9509ZM33.1639 20.7336C33.1248 18.8931 32.5366 17.1062 31.4747 15.6024C30.4129 14.0986 28.9258 12.9464 27.2045 12.2937C25.4832 11.641 23.606 11.5176 21.8141 11.9393C20.0221 12.361 18.397 13.3086 17.1474 14.6605C15.8978 16.0123 15.0807 17.7068 14.8009 19.5263C14.5212 21.3459 14.7916 23.2075 15.5773 24.8723C16.3631 26.5371 17.6285 27.9291 19.211 28.8696C20.7936 29.8102 22.6211 30.2563 24.459 30.1509C26.8427 30.0021 29.0774 28.9405 30.6986 27.1866C32.3198 25.4328 33.2027 23.1216 33.1639 20.7336Z" fill="#5619A5"/>
<path d="M23.9641 23.9209L21.151 25.9734C21.0463 26.0634 20.9194 26.1237 20.7836 26.148C20.6477 26.1723 20.5077 26.1598 20.3783 26.1118C20.2489 26.0637 20.1348 25.9818 20.0477 25.8747C19.9606 25.7676 19.9039 25.6391 19.8833 25.5026C19.8712 25.3214 19.9001 25.1398 19.9678 24.9713C20.2576 24.0417 20.5594 23.112 20.8854 22.1824C20.9167 22.1255 20.9362 22.063 20.9428 21.9985C20.9494 21.9339 20.9429 21.8687 20.9238 21.8068C20.9046 21.7448 20.8732 21.6873 20.8313 21.6377C20.7895 21.5882 20.7381 21.5476 20.6802 21.5183C19.8712 20.975 19.0865 20.3834 18.2655 19.8039C17.8308 19.49 17.7101 19.2002 17.8308 18.8259C17.9516 18.4517 18.2413 18.2826 18.7726 18.2826H21.8151C22.0445 18.2826 22.141 18.2826 22.2014 18.005C22.5274 16.9787 22.8654 15.9525 23.2035 14.9262C23.2531 14.7698 23.3513 14.6333 23.4837 14.5364C23.6161 14.4396 23.7759 14.3873 23.94 14.3873C24.1041 14.3873 24.2639 14.4396 24.3963 14.5364C24.5287 14.6333 24.6268 14.7698 24.6765 14.9262L24.7489 15.1435C25.0507 16.0853 25.3767 17.0149 25.6544 17.9687C25.7389 18.2343 25.8597 18.2947 26.1253 18.2947H29.1316C29.6507 18.2947 29.9405 18.4758 30.0491 18.8501C30.1578 19.2244 30.0491 19.5141 29.6266 19.816C28.8177 20.4076 28.0087 21.0233 27.2119 21.5787C27.1629 21.5991 27.1188 21.6297 27.0825 21.6684C27.0462 21.7072 27.0186 21.7532 27.0015 21.8034C26.9844 21.8537 26.9781 21.907 26.9832 21.9598C26.9882 22.0127 27.0044 22.0638 27.0308 22.1099C27.3527 23.0758 27.6666 24.0417 27.9725 25.0075C28.0596 25.1766 28.0843 25.3709 28.0423 25.5564C28.0004 25.7418 27.8945 25.9066 27.7431 26.0217C27.5838 26.1293 27.3921 26.1784 27.2007 26.1608C27.0092 26.1432 26.8298 26.06 26.6927 25.9251L23.9641 23.9209ZM26.9946 25.0438C26.6807 24.09 26.3667 23.1482 26.0649 22.1944C26.0112 22.0968 25.9779 21.9892 25.9671 21.8783C25.9563 21.7673 25.9683 21.6553 26.0021 21.5492C26.036 21.443 26.0912 21.3448 26.1642 21.2606C26.2373 21.1764 26.3267 21.108 26.4271 21.0595L28.1536 19.8522L28.9625 19.2606H25.9804C25.2922 19.2606 25.1232 19.1399 24.9059 18.5L24.109 16.0853C24.109 15.9766 24.0245 15.88 23.9521 15.6869C23.614 16.7372 23.3122 17.691 22.9983 18.6448C22.9822 18.7517 22.9449 18.8543 22.8885 18.9465C22.8321 19.0387 22.7579 19.1186 22.6701 19.1817C22.5823 19.2447 22.4828 19.2895 22.3774 19.3134C22.272 19.3373 22.1629 19.3399 22.0565 19.321H18.9295L19.2796 19.5986L21.4529 21.1682C21.55 21.2168 21.6366 21.2843 21.7075 21.3666C21.7785 21.449 21.8324 21.5446 21.866 21.6479C21.8997 21.7512 21.9126 21.8602 21.9038 21.9685C21.8951 22.0769 21.8649 22.1824 21.8151 22.279C21.5494 23.1241 21.2597 23.9692 20.982 24.8144L20.8492 25.2732L23.2639 23.4742C23.3476 23.3831 23.4493 23.3104 23.5625 23.2606C23.6758 23.2108 23.7982 23.1852 23.9219 23.1852C24.0456 23.1852 24.168 23.2108 24.2812 23.2606C24.3945 23.3104 24.4962 23.3831 24.5799 23.4742L26.9946 25.0438Z" fill="#5619A5"/>
</svg>
